{"asset":{"generator":"glTF-Transform v4.2.1","version":"2.0"},"accessors":[{"type":"SCALAR","componentType":5125,"count":1218852,"bufferView":0,"byteOffset":0},{"type":"SCALAR","componentType":5123,"count":9168,"bufferView":0,"byteOffset":4875408},{"type":"SCALAR","componentType":5123,"count":1218,"bufferView":0,"byteOffset":4893744},{"type":"VEC3","componentType":5126,"count":304063,"max":[0.2711780071258545,0.5446529984474182,-0.000012000000424450263],"min":[-0.26861101388931274,-0.6055989861488342,-0.416036993265152],"bufferView":1,"byteOffset":0},{"type":"VEC3","componentType":5126,"count":304063,"bufferView":1,"byteOffset":12},{"type":"VEC2","componentType":5126,"count":304063,"bufferView":1,"byteOffset":24},{"type":"VEC3","componentType":5126,"count":1734,"max":[0.5158671140670776,0.05502889305353165,0.15640316903591156],"min":[-3.5676928078487435e-9,-0.06117919459939003,-0.09950999170541763],"bufferView":2,"byteOffset":0},{"type":"VEC3","componentType":5126,"count":1734,"bufferView":2,"byteOffset":12},{"type":"VEC2","componentType":5126,"count":1734,"bufferView":2,"byteOffset":24},{"type":"VEC3","componentType":5126,"count":409,"max":[0.06971337646245956,0.16477827727794647,1.7848372779738497e-9],"min":[-0.06971337646245956,-0.04083231836557388,-1.1359614133834839],"bufferView":3,"byteOffset":0},{"type":"VEC3","componentType":5126,"count":409,"bufferView":3,"byteOffset":12},{"type":"VEC2","componentType":5126,"count":409,"bufferView":3,"byteOffset":24}],"bufferViews":[{"buffer":0,"byteOffset":0,"byteLength":4896180,"target":34963},{"buffer":0,"byteOffset":4896180,"byteLength":9730016,"byteStride":32,"target":34962},{"buffer":0,"byteOffset":14626196,"byteLength":55488,"byteStride":32,"target":34962},{"buffer":0,"byteOffset":14681684,"byteLength":13088,"byteStride":32,"target":34962}],"samplers":[{"magFilter":9729,"minFilter":9987,"wrapS":10497,"wrapT":10497},{"magFilter":9729,"minFilter":9987,"wrapS":33071,"wrapT":33071}],"textures":[{"sampler":0,"extensions":{"EXT_texture_webp":{"source":1}}},{"sampler":0,"extensions":{"EXT_texture_webp":{"source":0}}},{"sampler":0,"extensions":{"EXT_texture_webp":{"source":2}}},{"sampler":1,"extensions":{"EXT_texture_webp":{"source":3}}},{"sampler":1,"extensions":{"EXT_texture_webp":{"source":4}}}],"images":[{"name":"texture_pbr_20250901_normal","mimeType":"image/webp","uri":"normal_1.webp"},{"name":"texture_pbr_20250901","mimeType":"image/webp","uri":"baseColor_1.webp"},{"name":"texture_pbr_20250901_metallic.png-texture_pbr_20250901_roughness.png","mimeType":"image/webp","uri":"metallicRoughness_1.webp"},{"name":"telechargement_e-Go_Plan de travail 1 - Copie","mimeType":"image/webp","uri":"baseColor_2.webp"},{"name":"ChatGPT Image 24 févr. 2026, 17_36_14","mimeType":"image/webp","uri":"baseColor_3.webp"}],"buffers":[{"uri":"taxi.bin","byteLength":14694772}],"materials":[{"name":"Material.002","doubleSided":true,"pbrMetallicRoughness":{"baseColorTexture":{"index":0},"metallicRoughnessTexture":{"index":2}},"normalTexture":{"index":1},"extensions":{"KHR_materials_specular":{"specularColorFactor":[2,2,2]}}},{"name":"telechargement_e-Go_Plan de travail 1 - Copie","alphaMode":"BLEND","doubleSided":true,"pbrMetallicRoughness":{"roughnessFactor":0.5,"metallicFactor":0,"baseColorTexture":{"index":3}}},{"name":"ChatGPT Image 24 févr. 2026, 17_36_14","alphaMode":"BLEND","doubleSided":true,"pbrMetallicRoughness":{"roughnessFactor":0.5,"metallicFactor":0,"baseColorTexture":{"index":4}}}],"meshes":[{"name":"node_0.001","primitives":[{"attributes":{"POSITION":3,"NORMAL":4,"TEXCOORD_0":5},"mode":4,"material":0,"indices":0}]},{"name":"telechargement_e-Go_Plan de travail 1 - Copie","primitives":[{"attributes":{"POSITION":6,"NORMAL":7,"TEXCOORD_0":8},"mode":4,"material":1,"indices":1}]},{"name":"ChatGPT Image 24 févr. 2026, 17_36_14","primitives":[{"attributes":{"POSITION":9,"NORMAL":10,"TEXCOORD_0":11},"mode":4,"material":2,"indices":2}]}],"nodes":[{"name":"node_0","rotation":[0.7071068286895752,0,0,0.7071068286895752],"mesh":0},{"name":"telechargement_e-Go_Plan de travail 1 - Copie","translation":[-0.23836731910705566,0.17895251512527466,0.012866996228694916],"scale":[0.9374915957450867,0.9374915957450867,0.9374915957450867],"mesh":1},{"name":"ChatGPT Image 24 févr. 2026, 17_36_14","translation":[0,0.11238472163677216,0.5473348498344421],"mesh":2}],"scenes":[{"name":"Scene","nodes":[0,1,2]}],"scene":0,"extensionsUsed":["EXT_texture_webp","KHR_materials_specular"],"extensionsRequired":["EXT_texture_webp"]}