<?xml version="1.0" standalone="no"?>
<!DOCTYPE svg PUBLIC "-//W3C//DTD SVG 20010904//EN"
 "http://www.w3.org/TR/2001/REC-SVG-20010904/DTD/svg10.dtd">
<svg version="1.0" xmlns="http://www.w3.org/2000/svg"
 width="2134.000000pt" height="2134.000000pt" viewBox="0 0 2134.000000 2134.000000"
 preserveAspectRatio="xMidYMid meet">

<g transform="translate(0.000000,2134.000000) scale(0.100000,-0.100000)"
fill="#000000" stroke="none">
<path d="M19823 17400 c-350 -29 -673 -176 -931 -425 -261 -251 -419 -561
-463 -911 -18 -147 -7 -403 24 -534 44 -184 113 -351 204 -490 52 -80 1114
-1462 1167 -1519 37 -40 82 -61 131 -61 49 0 94 21 131 61 26 28 971 1252
1112 1439 23 31 64 95 92 143 l50 88 0 677 0 677 -46 81 c-210 372 -591 653
-1008 743 -87 19 -299 43 -351 39 -11 0 -61 -4 -112 -8z m345 -720 c382 -108
627 -430 625 -820 -4 -465 -372 -830 -838 -830 -390 0 -714 253 -816 635 -25
96 -30 277 -10 370 75 345 344 601 698 665 77 14 258 4 341 -20z"/>
<path d="M19735 12877 c-93 -31 -164 -86 -223 -173 -37 -54 -79 -175 -121
-354 -52 -218 -74 -287 -119 -373 -40 -78 -115 -151 -173 -168 -38 -12 -42
-10 -291 114 -264 132 -406 188 -667 263 -308 88 -587 132 -891 141 -698 20
-1315 -181 -1899 -620 -402 -302 -657 -681 -726 -1081 -19 -114 -19 -338 0
-449 62 -354 277 -685 608 -933 305 -229 716 -394 1160 -466 161 -26 551 -31
707 -10 587 82 1109 350 1560 802 133 133 196 203 499 554 84 98 157 174 161
169 15 -15 98 -288 124 -403 40 -182 50 -273 49 -455 0 -375 -107 -693 -333
-994 -197 -260 -519 -522 -834 -676 -341 -166 -650 -238 -1026 -239 -403 -1
-754 85 -1116 273 -308 160 -562 364 -807 648 -234 273 -414 364 -603 308
-110 -32 -254 -156 -370 -317 -271 -374 -372 -493 -898 -1053 -160 -170 -315
-336 -345 -368 -44 -46 -57 -55 -67 -45 -6 7 -294 470 -639 1028 -345 558
-631 1019 -635 1023 -10 11 -159 -61 -250 -121 -94 -61 -163 -130 -198 -196
-22 -42 -26 -64 -26 -126 0 -106 26 -164 162 -364 124 -184 165 -261 182 -342
17 -79 9 -87 -122 -129 -282 -91 -504 -126 -803 -126 -367 0 -683 72 -1004
227 -600 289 -1021 831 -1137 1463 -22 122 -29 364 -15 491 50 435 245 834
561 1150 280 280 628 474 1065 594 680 187 1322 94 1882 -273 516 -338 855
-790 953 -1271 87 -426 16 -870 -226 -1420 -35 -80 -64 -148 -64 -151 0 -4
118 -74 263 -158 322 -184 291 -184 401 -2 526 876 551 1825 71 2630 -126 210
-248 365 -444 562 -97 97 -219 209 -271 249 -383 295 -819 498 -1279 594
-1056 222 -2156 -93 -2882 -825 -422 -426 -693 -977 -771 -1569 -19 -145 -16
-490 5 -641 l18 -126 -32 -54 c-17 -30 -108 -198 -201 -374 -256 -481 -359
-641 -568 -881 -324 -370 -789 -652 -1287 -780 -203 -52 -344 -67 -568 -61
-318 8 -546 62 -810 191 -157 77 -281 163 -389 271 -77 76 -194 231 -183 241
3 3 72 14 154 25 701 92 1292 312 1753 652 613 452 974 1068 1006 1716 18 351
-79 702 -274 996 -400 605 -1149 846 -1967 635 -306 -79 -643 -241 -933 -448
-594 -426 -978 -1019 -1147 -1772 -30 -130 -75 -408 -75 -458 0 -40 -6 -39
-115 15 -204 102 -330 242 -494 550 -78 145 -129 211 -186 240 -55 29 -150 28
-271 -2 -210 -52 -258 -71 -299 -117 -36 -40 -37 -43 -33 -102 4 -47 17 -87
56 -167 28 -59 61 -131 72 -160 146 -370 455 -720 860 -974 58 -36 202 -115
321 -175 228 -117 322 -182 378 -263 16 -24 64 -111 105 -194 223 -444 533
-772 973 -1029 862 -503 2012 -526 2944 -58 610 305 1081 775 1440 1437 35 65
75 132 89 149 l26 30 52 -86 c339 -554 880 -924 1627 -1114 515 -131 1019
-181 1845 -183 l415 -1 -205 -67 c-263 -87 -305 -107 -518 -244 -97 -63 -316
-201 -487 -307 -730 -454 -1104 -726 -1423 -1034 -139 -135 -216 -227 -309
-368 -277 -422 -331 -934 -144 -1369 326 -756 1253 -1094 2121 -772 193 71
493 243 728 417 162 120 273 216 422 365 569 570 879 1286 940 2171 5 80 10
191 10 247 0 253 69 488 174 596 115 119 506 438 1061 867 209 162 402 311
429 332 42 34 51 37 65 25 322 -269 513 -398 810 -547 686 -343 1372 -438
2059 -284 477 106 963 342 1380 666 133 104 340 304 444 428 350 418 528 928
504 1439 -8 179 -23 276 -117 734 -88 434 -139 720 -166 932 -25 203 -25 654
1 820 46 303 145 587 296 853 l41 72 -28 11 c-15 6 -71 22 -123 36 -116 31
-339 42 -405 20z m-2255 -1292 c358 -55 713 -187 1033 -381 113 -69 257 -172
263 -189 3 -7 -23 -64 -57 -126 -422 -775 -976 -1265 -1571 -1389 -279 -58
-544 -46 -844 41 -181 52 -322 115 -464 207 -194 126 -341 275 -413 421 -40
80 -42 89 -41 170 2 153 75 348 198 532 113 171 225 280 411 404 259 174 577
287 906 324 118 14 453 5 579 -14z m-12010 -605 c235 -68 412 -239 506 -490
103 -272 82 -536 -67 -831 -201 -402 -473 -678 -854 -867 -307 -152 -675 -241
-1025 -247 -91 -1 -221 -8 -290 -15 -309 -31 -449 25 -540 214 -53 110 -70
181 -77 311 -12 250 61 461 331 955 137 250 201 349 290 448 263 291 597 462
1026 526 158 24 168 24 405 21 190 -3 230 -6 295 -25z m7020 -4887 c0 -5 7
-62 15 -128 17 -139 19 -369 5 -505 -35 -336 -119 -626 -270 -935 -295 -602
-779 -1026 -1315 -1151 -107 -25 -359 -25 -495 -1 -301 56 -551 197 -595 337
-37 119 -31 337 17 545 62 275 212 509 528 825 501 501 1119 808 2045 1013 34
8 65 7 65 0z"/>
<path d="M1225 12111 c-22 -10 -54 -31 -70 -48 -17 -16 -110 -159 -208 -316
l-177 -286 -163 101 c-89 56 -222 138 -295 184 -141 87 -197 107 -267 95 l-40
-6 0 -235 0 -234 242 -151 c134 -83 247 -155 253 -161 6 -6 -43 -93 -147 -259
-209 -334 -223 -362 -223 -433 1 -92 51 -175 134 -220 43 -23 169 -23 212 0
58 32 90 75 269 363 97 157 179 285 181 285 2 0 130 -79 286 -177 156 -97 297
-182 315 -190 110 -46 262 20 310 134 17 42 17 144 0 186 -27 64 -72 98 -362
278 -279 174 -294 184 -281 204 7 11 90 144 184 296 132 211 174 287 181 325
21 112 -39 226 -141 268 -51 22 -143 20 -193 -3z"/>
</g>
</svg>
